<?xml version="1.0" standalone="no"?>
<!DOCTYPE svg PUBLIC "-//W3C//DTD SVG 20010904//EN"
 "http://www.w3.org/TR/2001/REC-SVG-20010904/DTD/svg10.dtd">
<svg version="1.0" xmlns="http://www.w3.org/2000/svg"
 width="328.000000pt" height="327.000000pt" viewBox="0 0 328.000000 327.000000"
 preserveAspectRatio="xMidYMid meet">

<g transform="translate(0.000000,327.000000) scale(0.100000,-0.100000)"
fill="#000000" stroke="none">
<path d="M0 2725 l0 -545 155 0 155 0 0 390 0 390 390 0 390 0 0 155 0 155
-545 0 -545 0 0 -545z"/>
<path d="M2190 3115 l0 -155 390 0 390 0 0 -390 0 -390 155 0 155 0 0 545 0
545 -545 0 -545 0 0 -155z"/>
<path d="M650 2449 c-73 -14 -149 -74 -185 -144 l-30 -60 0 -590 0 -590 30
-59 c37 -73 97 -119 183 -141 52 -14 138 -15 609 -13 619 4 604 2 686 81 87
85 82 43 82 722 0 679 5 637 -82 722 -82 79 -66 77 -693 79 -305 1 -575 -2
-600 -7z"/>
<path d="M2650 2313 c-24 -10 -293 -184 -315 -203 -11 -10 -55 -41 -97 -69
l-78 -52 0 -334 0 -335 43 -27 c23 -15 74 -50 112 -79 39 -28 131 -90 206
-138 148 -94 177 -102 236 -66 72 43 68 10 68 645 0 529 -1 573 -18 598 -9 15
-28 34 -42 43 -27 17 -91 27 -115 17z"/>
<path d="M0 545 l0 -545 545 0 545 0 0 155 0 155 -390 0 -390 0 0 390 0 390
-155 0 -155 0 0 -545z"/>
<path d="M2970 700 l0 -390 -390 0 -390 0 0 -155 0 -155 545 0 545 0 0 545 0
545 -155 0 -155 0 0 -390z"/>
</g>
</svg>
